<svg width="24" height="24" viewBox="0 0 24 24" fill="none" xmlns="http://www.w3.org/2000/svg">
<path fill-rule="evenodd" clip-rule="evenodd" d="M3.51344 3.51601C8.19901 -1.17101 15.797 -1.17214 20.484 3.51343C22.7346 5.76334 23.9993 8.81508 24 11.9974C24.0007 15.1803 22.7369 18.233 20.4866 20.484C15.801 25.171 8.20304 25.1721 3.51602 20.4866C-1.17101 15.801 -1.17214 8.20304 3.51344 3.51601ZM12 5C9.24284 5 7 7.35525 7 10.25C7 14.1231 11.6132 18.7266 11.8096 18.9208C11.8633 18.9735 11.9316 19 12 19C12.0684 19 12.1367 18.9735 12.1905 18.9208C12.3868 18.7266 17 14.1231 17 10.25C17 7.35525 14.7572 5 12 5ZM12 13.1667C10.4684 13.1667 9.22222 11.8582 9.22222 10.25C9.22222 8.64183 10.4684 7.33332 12 7.33332C13.5316 7.33332 14.7778 8.64186 14.7778 10.25C14.7778 11.8581 13.5316 13.1667 12 13.1667Z" fill="#A8A8A8"/>
</svg>
