<svg width="24" height="24" viewBox="0 0 24 24" fill="none" xmlns="http://www.w3.org/2000/svg">
<path fill-rule="evenodd" clip-rule="evenodd" d="M3.51344 3.51601C8.19901 -1.17101 15.797 -1.17214 20.484 3.51343C22.7346 5.76334 23.9993 8.81508 24 11.9974C24.0007 15.1803 22.7369 18.233 20.4866 20.484C15.801 25.171 8.20304 25.1721 3.51602 20.4866C-1.17101 15.801 -1.17214 8.20304 3.51344 3.51601ZM18.172 16.7174L18.1736 16.7159C18.3715 16.517 18.3708 16.1954 18.1719 15.9975L15.9199 13.7415L15.9183 13.7399C15.7195 13.542 15.3979 13.5427 15.1999 13.7415L13.9239 15.0375C13.5522 15.4067 12.9697 15.4572 12.54 15.1575C11.7963 14.6375 11.1002 14.0525 10.46 13.4095C9.88571 12.8372 9.35739 12.2207 8.87996 11.5655C8.56557 11.1354 8.6132 10.5401 8.99195 10.1655L10.3119 8.84546L10.3135 8.84386C10.5115 8.64507 10.5108 8.32341 10.3119 8.12546L8.06396 5.87748L8.06237 5.87588C7.86357 5.67793 7.54192 5.67863 7.34397 5.87748L6.63198 6.58946C5.76793 7.4394 5.45823 8.7045 5.83197 9.85744C6.15798 10.8389 6.61834 11.7704 7.19997 12.6255C7.73171 13.4201 8.34137 14.1598 9.01998 14.8334C9.75751 15.5755 10.5744 16.2341 11.456 16.7975C12.4048 17.4207 13.4473 17.8879 14.544 18.1814C15.6324 18.4413 16.7776 18.1137 17.564 17.3174L18.172 16.7135V16.7174Z" fill="#A8A8A8"/>
</svg>
