<svg width="24" height="24" viewBox="0 0 24 24" fill="none" xmlns="http://www.w3.org/2000/svg">
<path fill-rule="evenodd" clip-rule="evenodd" d="M12 0C5.373 0 0 5.373 0 12C0 18.627 5.373 24 12 24C18.627 24 24 18.627 24 12C24 5.373 18.627 0 12 0ZM19.5 12.75C19.5 14.4045 18.1545 15.75 16.5 15.75C15.594 15.75 14.79 15.3375 14.2395 14.7C13.707 15.357 12.9315 15.75 12 15.75C10.233 15.75 9 14.3625 9 12.375C9 10.3875 10.233 9 12 9C12.5925 9 13.1175 9.168 13.5645 9.45C13.68 9.186 13.9425 9 14.25 9C14.664 9 15 9.336 15 9.75V12.75C15 13.578 15.672 14.25 16.5 14.25C17.328 14.25 18 13.578 18 12.75V12.3135C18 9.126 15.7665 6.435 12.8025 6.0525C10.833 5.8005 8.9385 6.4785 7.6005 7.9185C6.264 9.36 5.727 11.3145 6.132 13.281C6.5895 15.504 8.379 17.337 10.5825 17.838C11.9955 18.159 13.4055 18 14.658 17.3775C15.0315 17.196 15.4785 17.3445 15.6645 17.7165C15.8475 18.0885 15.696 18.5385 15.3255 18.723C14.2845 19.239 13.1595 19.5015 12.006 19.5015C11.4255 19.5015 10.8375 19.4355 10.2495 19.3005C7.4385 18.6615 5.2455 16.4175 4.662 13.5825C4.1595 11.136 4.83 8.7 6.501 6.8985C8.175 5.097 10.5405 4.2525 12.9945 4.563C16.704 5.043 19.5 8.3745 19.5 12.3135V12.75ZM10.5 12.375C10.5 11.2185 11.0745 10.5 12 10.5C12.9255 10.5 13.5 11.2185 13.5 12.375C13.5 13.5315 12.9255 14.25 12 14.25C11.0745 14.25 10.5 13.5315 10.5 12.375Z" fill="#A8A8A8"/>
</svg>
