<svg width="12" height="16" viewBox="0 0 12 16" fill="none" xmlns="http://www.w3.org/2000/svg">
<path d="M4.09375 10H3.375C3.1875 10 3 10.2188 3 10.4062V12.625C3 12.8125 3.1875 13 3.375 13H4.09375C4.28125 13 4.5 12.8125 4.5 12.625V10.4062C4.5 10.2188 4.28125 10 4.09375 10ZM6.34375 8H5.625C5.4375 8 5.25 8.21875 5.25 8.40625V12.625C5.25 12.8125 5.4375 13 5.625 13H6.34375C6.53125 13 6.75 12.8125 6.75 12.625V8.40625C6.75 8.21875 6.53125 8 6.34375 8ZM7.875 13H8.59375C8.78125 13 9 12.8125 9 12.625V9.40625C9 9.21875 8.78125 9 8.59375 9H7.875C7.6875 9 7.5 9.21875 7.5 9.40625V12.625C7.5 12.8125 7.6875 13 7.875 13ZM11.5312 3.0625L8.90625 0.46875C8.625 0.1875 8.25 0 7.875 0H1.46875C0.65625 0.03125 0 0.6875 0 1.53125V14.5312C0 15.3438 0.65625 16 1.46875 16H10.4688C11.3125 16 12 15.3438 12 14.5312V4.125C12 3.75 11.8125 3.34375 11.5312 3.0625ZM7.96875 1.625L10.375 4.03125H7.96875V1.625ZM10.5 14.5312H1.46875V1.53125H6.46875V4.78125C6.46875 5.1875 6.8125 5.53125 7.21875 5.53125H10.5V14.5312Z" fill="#A8A8A8"/>
</svg>
