<?xml version="1.0" encoding="UTF-8"?>
<!DOCTYPE svg PUBLIC "-//W3C//DTD SVG 1.1//EN" "http://www.w3.org/Graphics/SVG/1.1/DTD/svg11.dtd">
<!-- Creator: CorelDRAW 2020 (64-Bit) -->
<svg xmlns="http://www.w3.org/2000/svg" xml:space="preserve" width="3.50314in" height="2.89248in" version="1.1" style="shape-rendering:geometricPrecision; text-rendering:geometricPrecision; image-rendering:optimizeQuality; fill-rule:evenodd; clip-rule:evenodd"
viewBox="0 0 1006.83 831.32"
 xmlns:xlink="http://www.w3.org/1999/xlink"
 xmlns:xodm="http://www.corel.com/coreldraw/odm/2003">
 <defs>
  <style type="text/css">
   <![CDATA[
    .fil0 {fill:#FEFEFE}
   ]]>
  </style>
 </defs>
 <g id="Layer_x0020_1">
  <metadata id="CorelCorpID_0Corel-Layer"/>
  <g id="_2273444766960">
   <path class="fil0" d="M604.24 23.58c-0.94,1.1 -0.16,0.74 -1.67,1.65 -1.73,1.04 -0.41,0.46 -2.74,0.74 -7.54,2.36 -20.21,9.83 -27.53,13.93 -8.26,4.62 -17.74,11.53 -25.4,15.26 -1.08,1.53 -0.3,0.69 -1.69,1.91 -1.53,1.34 1.41,-0.51 -1.58,0.77 -3.47,1.7 -10.75,7.8 -13.97,8.83 -0.92,1.31 -0.43,0.78 -1.67,1.95 -1.52,1.44 1.23,-0.58 -1.58,0.94l-1.72 1.31 -3.22 2.18c-4.26,1.74 -16.78,12.01 -21.29,15.45 -6.19,4.7 -14.68,12.68 -20.51,16.11 -5.74,-1.61 -18.24,-11.66 -24.67,-14.3 -3.32,-0.96 -2.78,-0.2 -4.07,-3.02 -3.32,-0.47 -60.36,-33.48 -126.51,-44.15 -57.62,-9.3 -96.61,-4.36 -149.58,13.39 -0.88,0.73 -0.5,0.62 -2.29,1.47 -2.01,0.96 3.34,-0.48 -2.05,0.42 -8.42,2.58 -18.27,8.07 -26.26,12.34 -4.4,2.35 -8.67,4.74 -12.22,6.91 -3.49,2.14 -7.56,5.22 -11.51,7.05l-1.12 2.37 -1.89 0.05c-0.69,0.98 -0.23,0.56 -1.44,1.61 -1.44,1.25 0.94,-0.38 -1.49,0.78l-12.12 8.88 -3.13 3c-3.55,1.08 -23.12,19.94 -25.07,22.26l-2.61 2.51c-3.53,3.4 -14.08,14 -15.66,17.42 -1.81,2.82 -0.66,1.52 -3.13,2.96 -3.76,6.31 -9.83,12.07 -13.52,18.96 -0.81,1.97 -0.15,0.76 -1.28,2.25 -0.12,0.16 -0.55,0.7 -0.65,0.54 -0.1,-0.17 -0.48,0.31 -0.72,0.47 -2.54,5.48 -6.67,10.44 -8.94,15.83 -0.93,3.21 -0.05,1.78 -2.27,3.36 -2.41,7.45 -7.58,16.33 -10.85,25.24 -22.72,61.83 -17.32,122.52 4.81,183.75 2.1,5.8 9.64,22.06 10.15,25.65 2.72,2.08 4,4.23 4.32,7.83 2.09,1.71 2.5,2.74 3.71,5.7l0.19 1.31c1.45,1.16 0.65,-0.34 2.28,2.2 0.81,1.26 0.57,1.43 0.91,2.81l2.41 3.3c1.06,3.58 10.27,16.42 11.9,18.84 2.54,3.75 4.58,6.28 6.89,9.41 2.02,2.73 4.54,5.12 6.05,8.45 2.37,1.62 2.39,0.75 3.13,4.21l5.19 6.56c2.14,1.28 1.49,0.13 3.25,3.15l1.75 2.7c2.18,1.25 1.37,-0.09 3.04,3.12l0.19 -0.17 2.34 2.94 -0.11 0.12 2.39 2.75c1.08,2.03 1.57,1.58 2.45,3.74 2.43,1.34 1.57,0.25 3.25,2.85 3.68,5.38 9.25,10.67 13.63,15.52 3.75,4.15 11.02,10.66 13.85,15.19 2.22,1.24 1.44,0.19 3.31,2.87 1.73,2.56 19.59,20.69 22.38,22.25l2.56 2.64 2.46 2.94c1.95,0.78 0.84,-0.53 2.52,1.66l0.03 -1.97c0.13,-2.85 -7.91,-11.49 -10.5,-15.11 -3.53,-4.94 -6.77,-10.35 -10.32,-15.07l-1.82 -0.66 -0.53 -2.58c-1.11,-3.43 -4.64,-8.14 -6.13,-10.82 -2.06,-3.71 -4.1,-7.15 -6.25,-11.01 -2.6,-4.7 -9.93,-17.82 -10.79,-22.25 -1.71,-1.22 -0.63,0.72 -2.52,-2.77 -0.25,-0.46 -1.37,-3.25 -1.67,-3.91 -0.44,-3.38 -10.88,-26.24 -13.13,-32 -4.18,-10.69 -8.38,-21.61 -12.15,-32.87 -21.87,-65.19 -20.14,-148.35 14.65,-207.87 1.34,-2.29 7.31,-11.21 7.8,-13.35 1.12,-1.95 0.29,-0.76 1.63,-2.24 0.15,-0.17 0.6,-0.12 0.72,-0.54 0.12,-0.43 0.52,-0.31 0.78,-0.48l2.83 -4.51c1.59,-2.95 1.03,-1.86 3.07,-3.09l3.29 -4c1.48,-3.67 0.3,-1.8 3.32,-3.36 1.15,-3.62 6.5,-8.17 10.6,-12 3.74,-3.49 7.66,-7.46 11.78,-9.8 0.87,-1.35 0.43,-0.81 1.53,-2.01 1.54,-1.67 -1.21,0.73 1.41,-1.03 4.76,-2.27 12.7,-8.42 17.63,-11.35 4.56,-2.7 15.08,-8.79 19.45,-9.72 0.8,-0.86 0.51,-0.84 1.69,-1.66 0.76,-0.53 0.15,-0.18 1.29,-0.71 1.27,-0.59 2.66,-0.81 4.15,-1.17l2.32 -0.36c1.16,-1.26 -0.56,-0.53 2.51,-2.03 0.21,-0.1 1.81,-0.53 2.13,-0.63 2.34,-0.7 3.33,-1.03 5.76,-1.51 9.49,-2.11 17.44,-4.92 28.11,-6.77 63.99,-11.1 114.43,1.07 170.05,30.51 3.87,2.05 18.85,11.53 21.52,12.14 3.5,1.86 2.17,0.77 3.79,3.5 9.37,2.04 53.3,40.41 54.84,41.1 2.35,-1.34 1.96,-1.69 3.78,-2.96 0.87,-2.02 -1.01,-1.75 0.85,-2.12l1.81 -0.55c2.13,-3.57 30.05,-27.65 34.81,-30.23 1.37,-2.57 -0.12,-1.21 2.92,-3.09l0.82 0.28c1.11,-1.94 -0.19,-1.28 3.05,-2.97l0.76 0.06c1.04,-2.02 -0.57,-1.19 2.93,-2.26l0.76 -0.65c1.08,-1.58 -0.15,-1.51 3.06,-2.37l3.09 -2.43c3.25,-1.23 19.02,-11.95 23.73,-14.82 7.94,-4.84 16.84,-9.42 25.67,-13.61 40.6,-19.3 84.57,-29.42 130.76,-23.19 34.8,4.7 52.87,16.61 60.42,18.15l5.44 3.18 1.03 0.18c1.4,0.73 3.11,1.54 4.34,2.25 0.46,0.26 1.34,0.77 1.79,1.13 1.3,1.05 0.5,0.45 1.61,1.85 4.96,2 7.86,5.16 12.22,6.98 3.54,1.39 1.73,0.24 3.04,2.54 4.07,2.94 7.9,5.7 11.76,8.85 2.73,2.23 9.23,8.25 11.09,9.18l2.92 2.61 1.96 2.94c3.29,1.1 1.79,0.14 2.91,2.45l-0.12 0.05c2.06,0.91 1.29,-0.1 2.24,2.43 2.26,1.3 16.65,18.21 18.69,22.49 1.53,1.13 1.04,-0.37 2.03,3.19l3.37 4.71c1.62,1.28 0.59,0.24 1.85,1.64 0.03,0.04 1.18,1.61 1.24,1.71 1.15,1.75 0.9,1.34 1.76,3.38 1.44,4.07 5.12,9.62 7.31,14.34 33.93,73.1 27.49,152.34 -2.19,226.04 -2.07,5.14 -4.15,9.99 -6.24,14.84 -1.93,4.47 -5.68,10.02 -6.18,14.1 -0.79,1.75 -1.35,2.76 -2.2,4.29 -0.33,0.59 -0.62,1.23 -1.04,1.87 -0.79,1.21 -0.88,1.14 -1.53,1.88l-3.48 7.28c-1.05,3.39 -0.26,2.57 -3,3.83 -0.75,4.16 -10.44,18.26 -13.1,22.42 -1.97,3.07 -13.83,19.66 -14.43,21.73 -1.55,3.08 -1.19,1.89 -2.77,2.88 -3.68,5.87 -9.62,12.9 -13.87,18.08 -2.69,3.28 -4.87,5.47 -7.58,8.74 -2.6,3.15 -4.41,5.46 -6.95,7.74 -1.2,3.03 -0.24,1.6 -2.55,2.68l-14.53 16.34 -1.17 2.48 -2.2 0.4 -10 8.95c-1.3,2.18 -0.37,1.43 -2.9,3.29 -2.59,1.26 -7.15,5.8 -10.14,8.26 -4.33,3.57 -6.63,5.34 -10.72,8.43 -5.97,4.5 -14.5,10.94 -22,14.79 -1.27,2.53 -0.62,1.8 -3.48,2.37l-3.94 1.66c-1.16,1.47 1.22,1.11 -3.38,1.8 -7.6,4.2 -17.13,7.64 -26.32,10.31 -13.2,3.84 -19.88,1.76 -32.37,0.01 -14.19,-1.98 -55.32,-6.18 -68.06,-6.34 -1.48,-0.05 -3.65,0.01 -5.13,-0.23 -1.99,-0.32 -0.59,-0.04 -2.32,-0.68 -0.21,-0.08 -0.64,-0.07 -0.79,-0.44 -0.16,-0.38 -0.54,-0.33 -0.8,-0.49 -6.65,-0.71 -14.01,-2.88 -20.36,-4.76 -6.11,-1.82 -12.69,-4.98 -18.32,-6.26 -1.09,-0.4 -0.74,-0.05 -2.28,-0.93 -2.98,-1.71 -0.16,0.02 -1.83,-1.58 -8.23,-3.28 -14.79,-8.39 -22.65,-12.35 -8.55,-4.3 -19.23,-2.57 -23.43,4.66 -0.29,1.01 -0.37,1.64 -0.83,2.69 -0.91,2.11 -0.7,1.2 -1.42,2.17 -0.44,9.62 3.96,20.27 10.36,23.15l2.78 2.66 -0.61 0.16c3.21,1.17 1.75,0.35 2.72,2.3 8.21,5.06 15.75,10.5 26.41,15.31 5.2,2.35 10.15,4 14.86,6.15 4.56,2.09 8.42,5.01 12.48,7.96l2.51 2.74c0.99,2.36 1.64,1.91 2.79,4.53 1.27,0.99 0.68,0.32 1.79,1.78 1.3,1.71 -0.53,-1.81 0.67,1.69 1.53,4.72 2.79,5.78 2.35,12.12 -24.09,18.19 -80.45,34.15 -115.88,28.89 -24.08,-3.58 -28.99,-8.46 -37.3,-10.1 -1.64,-0.68 -3.27,-1.4 -4.81,-2.24 -3.43,-1.85 -1.76,-0.57 -3.54,-3.13 -5.3,-0.33 -55.27,-33.25 -68.55,-39.02 -1.52,-0.51 -2.15,-0.61 -3.33,-1.28 -1.83,-1.05 -1.73,-1.59 -1.97,-1.86 -1.46,-0.38 -1.31,-0.12 -2.8,-0.94 -2.98,-1.64 -1.26,-0.91 -2.46,-2.08 -14.75,-5.98 -22.4,-12.99 -42.83,-17.93 -15.76,-3.81 -44.64,-3.44 -40.63,15.91 1.68,8.1 10.68,10.61 17.67,12.78 29.94,9.27 37.51,16.9 61.26,29.31 1.99,0.84 0.66,0.12 2.24,1.25 0.16,0.11 0.45,0.81 0.57,0.62 0.12,-0.19 0.34,0.45 0.52,0.68l7.17 3.91 3.1 2.5c4.18,1.02 2.11,0.78 3.24,2.29 5.78,3.13 12.51,8.16 17.3,11.71 3.02,2.24 13.89,10.83 17.07,11.87l3.13 2.49c2.79,1.82 1.57,1.32 2.59,3l0.72 -0.28 2.89 2.46c2.89,0.5 0.92,-0.9 2.91,1.84 2.7,3.56 18.62,14.66 22.74,17.56 48.02,33.77 106.55,45 165.36,35.6 12.32,-1.97 22.82,-4.49 34.15,-7.19 10.59,-2.52 21.08,-7.22 30.86,-9.61 0.9,-0.74 0.46,-0.61 2.28,-1.39 1.55,-0.66 -2.1,0.04 2.23,-0.35l5.49 -1.8c2.16,-2.46 1.45,-1.57 5.11,-2.79 6.28,-1.14 25.49,-10.93 31.49,-13.82 5.15,-2.49 9.89,-4.98 15.2,-7.83 4.13,-2.22 10.81,-6.49 14.51,-8.02 0.54,-1.06 0.66,-2.95 2.92,-2.3 0.65,-0.87 0.26,-0.58 1.51,-1.54 1.58,-1.21 -0.96,0.29 1.63,-0.7l0.64 0.02c1.01,-1.43 0.03,-0.98 2.15,-2.5 1.69,-1.21 -0.51,-0.21 2.45,-0.88l1.06 -0.5c1.23,-1.76 0.04,-1.32 3.26,-2.82 5.71,-3.36 23.25,-16.11 26.82,-19.92l2.65 -2.28c6.48,-3.26 45.88,-37.69 51.1,-43.67l2.58 -2.49c1.88,-0.85 0.46,0.64 1.13,-1.18l2.82 -2.52 7.5 -6.12 0.9 -2.2 1.85 -0.67 -0.21 0.11 1.56 -1.82c0,-1.47 -0.26,-1 1.37,-0.57 0.83,-2.54 -1.3,-0.72 2.28,-2.91l-0.03 0.05c1.14,-2.22 0.05,-1.37 2.82,-2.53 0.82,-1.98 2.97,-4.17 4.91,-4.77 1.22,-3.7 0.29,-1.85 2.38,-3.02l12.02 -12.31 0.76 -1.83c0,-1.66 -0.34,-1.06 1.64,-1.16l21.54 -23.83c1.32,-3 2.49,-4.9 5.74,-7.13 1.67,-3.57 8.37,-10.94 11.5,-14.9 2.71,-3.43 9.71,-11.8 11.24,-15.03 0.93,-3.33 -0.76,-1.07 2.13,-3.09 4.19,-3.45 38.77,-55.19 42,-63.9l1.89 -3.25 2.08 -3.53c0.53,-2.29 -0.03,-2.66 2.18,-3.48 5.46,-11.48 11.94,-23.49 17.35,-35.77 11.42,-25.95 35.89,-97.15 36.1,-122.23 0.19,-3.74 0.87,-6.29 1.15,-9.9 0.25,-3.23 -0.01,-5.65 2.21,-8.18 -0.63,-6.38 1.71,-18.71 2.02,-25.81 2,-45.57 -0.99,-83.89 -14.33,-127.03 -5.25,-16.97 -13.55,-32.75 -15.9,-40.36 -1.75,-1.13 -1.09,0.48 -1.81,-3.09l-2.77 -5.45c-1.93,-1.52 -0.22,1.36 -2.32,-2.19 -1.2,-2.02 -0.53,-1.16 -0.65,-3.11 -2.11,-1.64 -2.3,-2.65 -3.93,-5.59 -0.56,-3.3 -10.82,-17.78 -13.32,-21.22 -3.29,-4.53 -13.19,-15.56 -14.82,-18.92 -2.44,-1.27 -1.41,-0.01 -3.41,-2.89 -1.69,-2.95 -13.94,-15.04 -18.14,-17.82l-3.1 -2.32 -4.72 -4.14c-1.95,-1.14 -0.8,-0.33 -2.12,-1.62 -0.16,-0.16 -0.39,-0.33 -0.51,-0.76 -0.12,-0.44 -0.29,-0.55 -0.45,-0.82 -3.63,-1.67 -13.89,-9.51 -17.74,-12.17 -3.34,-2.3 -14.94,-9.57 -19.33,-10.81 -3.4,-1.29 -2.17,-0.58 -4.12,-3 -1.36,-0.08 -23.27,-9.66 -27.36,-11.13 -9.16,-3.3 -20.16,-6.97 -30.05,-9.17 -57.14,-12.69 -116.74,-11.82 -172.87,5.24l-28.25 9.69z"/>
   <path class="fil0" d="M523.76 713.01l1.11 -2.18 -1.11 -2.87c-1.17,-1.93 -11.63,-5.67 -15.24,-7.77 -4.34,-2.52 -10.26,-6.51 -14.34,-9.59 -7.32,-5.52 -20.94,-17.56 -23.87,-24.59 -0.2,-0.17 -0.53,-0.65 -0.6,-0.5 -0.08,0.16 -0.46,-0.41 -0.55,-0.55 -0.99,-1.48 -0.42,-0.36 -1.15,-2.19 -2.42,-6.45 -5.07,-10.2 -5.05,-18.99 0.02,-15.88 7.44,-26.25 24.39,-26.17 10.8,0.05 12.6,2.03 21.52,4.48 -1.21,-28.83 -6.95,-39.27 -2.95,-78.32 2.77,-27.06 7.08,-45.55 15.02,-68.71 0.36,-2.42 -0.23,-4.47 1.85,-4.47l4.14 -11.53c0.47,-1.14 0.43,-1.4 1.13,-2.57 0.96,-1.59 0.58,-0.77 1.64,-1.76 1.81,-5.84 14.59,-29.19 18.41,-31.53 0.97,-4.76 -0.05,-1.51 1.89,-2.81l3.47 -5.35c-4.17,-3.45 -6.16,-5.18 -10.5,-8.89 -2.49,-2.13 -7.29,-7.3 -10.81,-7.71l-2.74 2.78c-1.83,0.95 -0.14,-1.17 -0.98,1.16 -2.5,3.03 -2.37,3.16 -5.34,4.76 -0.97,1.62 -21.75,25.33 -22.58,25.97l-0.75 1.74c0,1.62 0.32,1 -1.68,1.11l-9.24 13.19c-1.23,2.29 -1.28,2.76 -3.51,4.16l-1.16 2.53 -2.57 3.05c-0.84,3.05 -0.71,1.95 -2.3,3.04 -1.5,3.04 -8.54,13.89 -11.11,17 -2.11,-1.89 -10.67,-22.87 -11.41,-25.26 -1.9,-1.53 -1.77,-0.76 -1.96,-3.98l-7.65 -17c-0.19,-0.22 -0.46,-0.49 -0.59,-0.66l-4.17 -7.76c0.13,-3.35 -12.57,-25.42 -15.42,-28.87 -6.23,0.98 -15.95,5.73 -21.93,8.02l11.3 32.57c22.83,77.12 17.95,160.93 8.13,239.62 -1.64,13.13 -4.98,28.51 -4.81,41.58 31.55,10.28 68.23,19.73 100.2,-0.65 0.97,-0.62 1.39,-0.82 2.26,-1.54 2.4,-2 1.18,-0.16 1.61,-1.98z"/>
   <path class="fil0" d="M261.1 355.42c-1.73,2.81 -1.99,3.22 -5.48,3.97 -1.65,2.75 -0.96,0.8 -2.1,3.67 1.55,0.71 1.23,-1.58 1.49,0.79l0.4 2.06 0.18 -0.86 2.5 2.72c2.39,5.61 17.38,16.08 22.52,19.07 9.77,5.69 19.24,9.06 31.93,11.26 28.49,4.94 46.15,-3.73 67.48,-15.79 -0.76,-2.95 -1.32,-3.46 -3.36,-5.72 -1.97,-1.22 -1.23,-0.05 -2.28,-2.96 -3.74,-2.68 -6.76,-6.68 -11.41,-10.13 -2.74,-1.36 -1.64,-0.51 -2.99,-2.75l-5.71 -2.98c-1.86,-0.77 -2.35,-0.99 -4.15,-2.07l-3.08 -2.37c-14.8,-6.24 -24.99,-9.55 -43.68,-9.35 -8.06,0.09 -16.04,1.65 -23.02,3.71 -6.18,1.82 -15.58,7.07 -19.24,7.74z"/>
   <path class="fil0" d="M567.26 437.46c2.06,0.14 1.69,-0.48 1.69,1.26l0.9 1.96c2.48,0.55 6.28,5.69 9.09,8.05 3.55,2.99 6.66,5.33 11.03,8.2 5.1,3.35 19.04,10.77 25.91,11.09 6.39,1.07 11.33,2.22 18.05,2.7 6.23,0.45 14.61,-1.64 19.82,-0.59l8.02 -1.92c8.26,-0.73 25.09,-9.64 30.44,-14.11 -1.78,-4.21 -13.23,-16.81 -17.83,-18.52 -3.18,-1.73 -1.87,-0.87 -3.21,-3.25 -7.06,-2.29 -20.37,-15.92 -52.57,-16.08 -24.48,-0.12 -37.57,7.39 -53.43,16.92 0.83,2.96 1.06,1.61 2.08,4.29z"/>
   <path class="fil0" d="M321.29 432.06c-0.94,0.81 -0.2,0.58 -2.01,1.48 -1.64,0.82 -1.2,0.36 -2.71,0.68l-4.55 1.81 -3.31 1.78 -0.89 0.07c-1.25,1.37 0.8,0.21 -2.35,2.08 -2.39,1.41 0.26,-0.06 -2.56,0.92 -8.89,4.6 -23.34,18.94 -26.53,26.62 7.88,8.08 28.49,13.7 42.3,14.03 26.45,0.64 39.38,-9.96 45.9,-10.65 1.34,-1.81 -1.61,-1.43 1.16,-1.75l2.06 -0.52c0.67,-1.44 -1.57,-1.17 0.55,-1.54l2.01 -0.62 3.09 -2.26c4.01,-2.46 23.27,-18.71 20.29,-24.2 -2.91,-1.15 -1.73,-0.31 -3.14,-2.57 -3.51,-0.67 -9.75,-4.18 -14.94,-5.88 -5.35,-1.75 -11.62,-3.39 -16.73,-3.83 -17.12,-1.46 -23.72,0.93 -37.67,4.34z"/>
   <path class="fil0" d="M448.77 280.64c-0.83,1.22 -1.11,1.78 -1.96,2.58 -1.22,1.16 -0.44,0.35 -1.85,1.09 -0.55,1.78 -0.36,1.8 -1.48,3.23 -1.57,2 -1,1.04 -2.46,2.08 -18.62,24.85 -21.01,62.91 -5.54,90.85l3.97 5.16c5.53,-1.86 8.85,-7.06 12.64,-8.52 1.16,-2.62 -0.19,-1.31 2.46,-3.19 1.29,-1.57 0.7,-0.6 1.41,-2.1 1.87,-2.94 0.87,-1.69 3.29,-3.04 1.77,-3.26 4.37,-6.13 6.34,-9.24 18.25,-28.75 15.73,-72.89 -1.23,-91.3 -4.53,1.28 -13.71,9.19 -15.59,12.4z"/>
   <path class="fil0" d="M346.44 499.34l-3.5 2.38c-3.9,1.42 -12.98,8.13 -15.91,12.69l-2.54 2.8c-2.85,2.05 -5.49,6.64 -7.92,9.82 -0.55,2.96 0.45,1.58 -1.85,2.99l-5.3 11.98c0.58,2 0.63,2.05 1.62,3.5 9.29,-0.38 28.76,9.76 59.73,-5.83 13.15,-6.62 31.79,-23.02 35.47,-35.91l2.3 -3.68 2.58 -6.53c-20.81,-6.77 -48.68,-5 -64.68,5.79z"/>
   <path class="fil0" d="M365.5 575.8c-1.6,3.4 0.71,1.05 -2.63,2.69 -7.6,6.09 -19.94,29.47 -19.89,43.14l-0.5 13.42 6.82 -0.31c8,0.71 22.39,-5.46 28.46,-8.96 1.06,-1.12 0.42,-0.63 1.75,-1.69 0.23,-0.18 0.92,-0.63 1.17,-0.79 1.28,-0.82 1.77,-1.01 3.37,-1.76 13.75,-6.46 34.45,-36.7 34.13,-58.74l0.13 -10.03 -9.28 0.88c-12.74,-0.74 -38.28,14.53 -43.54,22.14z"/>
   <path class="fil0" d="M526.47 540.76c0.4,5.42 -1.09,13.46 -0.65,20.65 0.31,5.07 1.88,12.81 3.35,17.57 2.34,7.55 9.73,24.23 14.61,26.49l2.45 1.33 0.95 2.45c3.9,7.59 26.72,21.86 36.93,22.77 7.64,-15.98 0.67,-42.34 -4.64,-55.96 -2.12,-1.67 -1.09,0.22 -2.08,-3.4 -2.3,-5.62 -13.47,-19.65 -18.05,-22.11 -1.08,-0.73 -1.92,-1.19 -2.71,-1.97 -1.36,-1.34 -0.31,-0.28 -1.5,-2.15 -3.25,-1.26 -7.17,-4.45 -10.93,-6.43 -4.05,-2.14 -8.65,-4.09 -12.61,-5.07l-2.84 -0.2c-0.19,0.8 -0.44,2.35 -0.69,3.09 -1.23,3.63 -0.89,1.97 -1.58,2.94z"/>
   <path class="fil0" d="M611.3 354.21c-1.11,1.38 -0.22,0.6 -1.85,1.79 -1.25,0.91 0.89,-0.19 -1.77,0.66l-2.27 0.96c-1.49,3.24 -0.58,2.21 -4.24,3.86 -3.11,2.39 -13.07,11.79 -14.85,16.94 12.99,11.25 40.18,16.1 61.21,10.76 18.58,-4.72 36.49,-16.89 44.78,-30.43 -0.5,-2.69 -0.21,-1.31 -0.76,-2.48 -0.12,-0.25 -0.86,-0.93 -0.94,-1.4 -0.08,-0.43 -0.39,-0.43 -0.56,-0.67 -24.85,-14.78 -52.89,-13.51 -78.74,0.02z"/>
   <path class="fil0" d="M547.2 507.49c1.69,1.16 1.19,-0.41 2.83,3.32l1.98 3.42c1.88,1.13 1.56,-1.07 1.92,1.09l0.56 2c2.94,1.18 0.17,0.56 2.86,1.94 3.81,2.85 1.59,0.72 2.38,3.21 2.4,0.55 1.26,-0.25 2.46,2.1 4.1,2.32 5.66,4.86 14.67,9.59 17.96,9.41 45.13,11.66 61.91,3.28l0.09 -3.46c-0.71,-0.72 -0.8,-0.65 -1.61,-1.72 -0.18,-0.23 -0.67,-0.96 -0.82,-1.21 -0.82,-1.37 -0.73,-1.49 -1.23,-2.91 -1.05,-4.26 -3.55,-5.96 -5.49,-9.67 -2.12,-1.21 -1.27,0.32 -2.43,-3.03l-1.33 -1.25 -2.16 -0.13 -0.92 -2.37c-0.9,-1.7 -0.25,-0.66 -1.93,-2.46 -1.26,-1.35 -1.35,-0.89 -2.32,-2.52 -3.85,-1.16 -1.97,-0.48 -3.24,-2.22l-2.4 -1.16c-1.81,-0.75 -0.69,-0.14 -2.24,-1.24 -0.16,-0.11 -0.47,-0.24 -0.58,-0.62 -0.12,-0.38 -0.35,-0.46 -0.54,-0.68 -11.82,-5.41 -16.43,-8.77 -31.68,-10.83 -9.99,-1.35 -30.35,0.18 -36.67,5.34l5.95 12.2z"/>
   <path class="fil0" d="M525.89 294.72c-0.42,1.2 -0.64,2.12 -1.18,3.14 -2.2,4.17 -0.1,0.51 -1.98,2.53 -8.73,24.41 -10.3,44.6 3.88,69.48 3.53,6.19 9.09,13.86 13.43,16.18 12.09,-11.34 21.11,-33.04 20.28,-54.6 -0.42,-10.81 -3.4,-21.36 -7.7,-29.83 -3.13,-6.18 -11.07,-18.83 -16.41,-20.61 -4.05,3.73 -8.39,9.73 -10.32,13.72z"/>
   <path class="fil0" d="M380.03 330.24c3.22,1.35 2,1.03 3.2,2.63l9.19 4.39c6.78,-8.7 7.24,-33.55 4.51,-45.71 -4.89,-21.76 -16.64,-31.12 -17.89,-34.8 -4.18,-1.59 -1.99,-0.23 -3.84,-3.71 -2.77,-1.05 -2.9,-3.1 -6.42,-4.29 -1.94,-1.05 -0.75,-0.26 -2.25,-1.56 -0.16,-0.14 -0.42,-0.29 -0.53,-0.69 -0.12,-0.4 -0.3,-0.49 -0.46,-0.74l-2.49 -0.94c-1.73,-0.68 -2.27,-0.73 -3.75,-1.8 -3.69,-2.64 -0.26,0.13 -2.07,-2.22l-3.73 -1.18c-10.95,25.58 -6.78,53.2 9.58,75.28 2.18,2.95 12.52,13.69 16.96,15.32z"/>
   <path class="fil0" d="M633.19 245.24l-1.36 -0.04c-1.11,0.96 -0.18,0.49 -2.29,1.54 -1.67,0.82 2.42,-0.32 -2.05,0.43 -10.33,4.05 -24.68,17.26 -29.61,26.45 -1.51,3.56 0.46,0.12 -0.79,1.68 -1.09,1.37 -0.6,0.82 -1.8,1.77 -1.59,5.44 -6.5,10.52 -8.64,24.45 -1.53,9.97 -1.45,22.84 1.54,31.81 7.51,0.21 13.73,-5 19.58,-7.31 1.45,-1.76 0.61,-1.34 3.37,-2.73l6.43 -4.57c1.2,-2.02 -0.1,-0.82 1.48,-2.14 1.35,-1.13 0.37,-0.33 2.31,-1.3l-0.34 -0.04 2.33 -2.47c2.49,-3.24 9.85,-10.61 9.63,-14.79 0.51,-1.03 0.95,-2.15 1.56,-3.18 0.51,-0.86 0.24,-0.52 0.8,-1.26 0.93,-1.23 0.78,-0.86 1.72,-1.74 1.52,-6.08 4.3,-11.22 5.3,-18.9 1.19,-9.13 0.04,-15.78 -0.24,-24.45 -1.24,-1.52 -0.5,-0 -1.83,-2.83 -0.33,-0.7 -0.46,-1.56 -0.71,-2.32l-6.37 1.94z"/>
   <path class="fil0" d="M231.1 727.02c-0.94,0.96 -0.41,0.64 -1.97,1.6 -1.57,0.96 1.46,-0.29 -1.82,0.55l0.3 -0.07 -3.16 2.08c-5.29,5.52 -2.77,5.9 -3.2,13.1 1.8,1.23 0.58,-0.19 2.7,2.02 1.38,1.45 0.06,-0.02 1.28,2.08 11.3,5.18 26.23,6.43 39.4,9.05 13.81,2.74 26.39,5.8 38.8,8.96l74.67 20.86 1.7 -0.86 -33.93 -19.41c-20.79,-11.65 -49.73,-25.9 -72.26,-34.05 -19.09,-6.91 -24.93,-8.17 -42.53,-5.9z"/>
   <path class="fil0" d="M248.72 506.88c-1.24,0.96 0.23,0.18 -2.13,1.42 -0.28,0.15 -1.15,0.48 -1.44,0.61 -1.04,0.47 -2.28,0.97 -3.28,1.43 -2.8,0.35 -5.11,2.56 -6.67,4.11l-2.93 2.51c-3.13,1.16 -9.94,8.97 -11.84,12.57 -0.86,2.11 -0.15,0.75 -1.28,2.34 -0.12,0.17 -0.54,0.76 -0.64,0.6 -0.1,-0.17 -0.48,0.36 -0.71,0.54l-2.36 4.96 -1.17 4.26 3.4 2.83c8.47,0.8 14.05,2.84 24.17,1.4 5.41,-0.77 15.76,-4.45 19.81,-6.69 9.53,-5.27 22.16,-16.61 26.27,-26.86 0.9,-3.06 0.2,-3.19 2.57,-3.66l-0.49 -3.42c-0.17,-0.05 -2.03,-0.57 -2.04,-0.57 -1.57,-0.67 -1.36,-0.75 -2.19,-1.39 -19.28,-0.11 -18.46,-2.84 -37.05,3.01z"/>
   <path class="fil0" d="M255.21 287.35c2.52,1.46 1.25,-0.09 2.84,3.12 2.34,6.65 15.57,16.41 22.87,19.38 12.97,5.27 24.24,4.94 37.87,1.6 -0.87,-8.24 -12.8,-24.57 -19.33,-26.57 -1.19,-0.51 -2.26,-0.86 -3.33,-1.68 -1.65,-1.25 -1.04,-0.84 -2.19,-2.52 -4.1,-0.37 -8.66,-4.05 -19.63,-5.3 -7.35,-0.84 -16.98,0.42 -22.46,2.66 0.41,4.81 2.31,5.47 3.35,9.29z"/>
   <path class="fil0" d="M667.43 511.74l2.35 2.74c6.57,5.59 14.65,9.85 23.83,12.11 8.64,2.12 24.05,2.09 31.19,-2.56 -0.69,-3.51 -4.64,-11.21 -7.32,-12.6l-2.4 -2.81c-0.93,-2.01 -4.46,-4.94 -6.33,-5.99 -3.26,-1.93 -1.96,-1.26 -3.17,-3.27 -2.45,-0.54 -6.24,-3.42 -9.6,-4.74 -13.12,-5.15 -27.8,-5.73 -39.84,-0.3 1.63,5.35 7.2,15.15 11.29,17.42z"/>
   <path class="fil0" d="M696.27 389.58c-0.94,0.91 0.51,0.65 -2.47,1.73 -2.04,0.74 -0.8,0.24 -3.05,0.38 -5.92,1.25 -13.77,6.39 -17.65,10.72l-3.55 3.59c1.03,3.42 10.79,8.26 14.28,9.7 6.3,2.6 13.96,4.29 21.96,4.25 18.95,-0.1 25.86,-7.45 36.35,-14.9l0.77 -4.06 -1.67 -1.65 -2.99 -1.66c-2.77,-0.76 -2.46,-0.3 -3.62,-2.98 -2.82,-0.23 -11.39,-4.42 -16.65,-5.29 -9.18,-1.51 -13.75,-0.02 -21.69,0.17z"/>
   <path class="fil0" d="M218.14 426.64l-3.28 1.76 -4.75 3.9 -2.6 2.13 -1.35 1.39 -2.43 2.73c-2.12,1.26 -1.37,0.95 -2.26,3.09 7.06,9.5 31.76,13.85 47.72,8.13 3.14,-1.13 5.11,-1.83 7.49,-3.13 2.6,-1.42 3.63,-2.75 6.22,-3.57 1.02,-1.38 0.59,-0.91 1.74,-2.07 1.42,-1.43 -0.87,0.47 1.46,-1l-0.05 -0.27c1.67,-2.96 2.17,-3.13 4.91,-4.79 2.31,-0.56 2.23,-1.55 3.55,-3.84 -11.49,-12.91 -42.27,-13.39 -56.36,-4.46z"/>
   <path class="fil0" d="M605.33 576.34c4.61,11.61 8.02,16.95 15.82,23.69 5.33,4.6 17.72,12.78 27.81,11.99l11.9 0.04 -0.39 -5.76c-0.3,-13.63 -13.62,-25.72 -21.61,-32.01 -3.1,-1.08 -2.65,-0.4 -3.99,-3.21 -5.19,-0.51 -10.53,-5.51 -20.25,-5.54l-11.29 0.14 2 10.67z"/>
   <path class="fil0" d="M236.9 774.35c-4.65,2.1 -6.72,7.45 -2.05,11.77 9.13,8.42 71.19,7.78 86.76,8.11 11.68,0.25 24.88,1.18 36.4,0.71 -9.73,-3.62 -85.45,-21.64 -94.45,-21.62 -4.69,-0.04 -8.96,-0.82 -13.8,-0.76 -4.52,0.06 -9.09,1.31 -12.86,1.79z"/>
   <path class="fil0" d="M584.45 207.8c-14.53,14.44 -22.16,44.1 -5.13,63.45 6.77,-1.63 14.51,-14.87 17.08,-22.28 5,-14.42 2.33,-19.42 -0.35,-33.08 -0.99,-0.95 -0.92,-0.65 -1.81,-1.83 -0.25,-0.34 -0.61,-0.94 -0.79,-1.26 -0.6,-1.11 -0.65,-1.67 -1.07,-2.99 -0.94,-3.55 -1.89,-5.02 -5.43,-4.72 -0.96,2.63 0,1.67 -2.51,2.7z"/>
   <path class="fil0" d="M296.7 591.22c-1.5,2.89 -1.87,2.95 -4.83,4.23l-3.26 3.22 -2.4 2.8c-2.41,2.33 -3.85,5.09 -5.29,8.34 -7.61,17.11 5.84,10.28 18.34,10.27l6.23 -2.95c5.41,0.1 15.72,-9.7 18.64,-13.02 3.62,-4.13 9.96,-14.25 9.63,-21.32 -11.15,-3.12 -31.94,1.33 -37.04,8.44z"/>
   <path class="fil0" d="M669.11 295.07c-1.81,3.32 -2.23,3.26 -5.43,4.5 -3.88,4.84 -11.83,12.68 -12.15,21.46 0.76,3.46 3.34,3.01 7.28,2.93 3.67,-0.07 6.83,-0.76 10.41,-1.1l7.34 -1.76c2.08,-2.19 -1.68,0.26 2.42,-2.13 0.97,-0.56 1.94,-0.82 3.08,-1.26 8.74,-3.15 19.89,-19.89 19.82,-25.6 -0.07,-5.99 1.07,4.9 -0.25,-1.69 -0.06,-0.28 -0.23,-0.63 -0.29,-0.86 -1.18,-4.49 -19.09,-0.51 -25.56,2.26 -1.98,0.85 -4.53,2.61 -6.67,3.26z"/>
   <path class="fil0" d="M496.52 239.43c-1.65,2.8 -1,1.75 -3.17,3.03 -1.93,5.54 -15.59,24.04 -2.16,44.87l3.17 -0.8 2.52 -2.28c12.57,-8.08 18.91,-37.12 7.72,-50.8 -3.43,0.93 -6.39,3.67 -8.08,5.98z"/>
   <path class="fil0" d="M425.08 284.83c1.1,-1.99 0.32,-1.26 2.77,-2.09 4.32,-4.81 5.83,-6.26 9.69,-12.85 0.5,-3.37 0.03,-3.45 2.4,-5.23 -0.56,-14.28 2.38,-15.34 -4.53,-28.73 -6.69,1.66 -13.59,13.05 -15.32,19.79 -2.15,8.4 -1.38,24.42 4.99,29.11z"/>
   <path class="fil0" d="M653.75 470.13c-5.22,-1.05 -13.59,1.03 -19.82,0.59 -6.73,-0.48 -11.66,-1.64 -18.05,-2.7 4.69,4.86 26.63,4.48 33.52,3.43l4.36 -1.31z"/>
   <path class="fil0" d="M236.9 774.35c3.77,-0.48 8.34,-1.73 12.86,-1.79 4.84,-0.06 9.11,0.72 13.8,0.76 -0.24,-0.16 -0.52,-0.37 -0.72,-0.46 -4.17,-1.9 -8.15,-1.56 -13.06,-1.51 -4.7,0.05 -10.14,-0.29 -12.88,3z"/>
   <path class="fil0" d="M605.33 576.34l-2 -10.67 11.29 -0.14c-1.31,-1.26 1.62,-0.36 -2.69,-1.39 -0.2,-0.05 -2.61,-0.28 -2.89,-0.29 -2.46,-0.06 -3.94,0.3 -6.26,0.86 -0.64,2.77 -0.39,3.74 0.05,6.43 0.68,4.07 0.9,3.91 2.49,5.2z"/>
   <path class="fil0" d="M669.22 322.85c-3.59,0.33 -6.74,1.02 -10.41,1.1 -3.94,0.08 -6.51,0.53 -7.28,-2.93 -0.68,0.85 -1.52,-1.4 -0.82,3.32 3.18,0.69 5.82,0.95 9.09,0.84 8.68,-0.28 7.79,-0.17 9.42,-2.33z"/>
   <path class="fil0" d="M418.18 562.8c0.54,-0.9 0.25,0.59 1.17,-2.35 1.25,-4.01 0.7,-5.82 -0.25,-8.49 -2.8,-0.55 -8.87,-0.82 -10.06,1.7l9.28 -0.88 -0.13 10.03z"/>
   <path class="fil0" d="M349.3 634.74l-6.82 0.31 0.5 -13.42c-1.54,2.18 -1.42,2.55 -1.67,6.82 -0.2,3.38 -0.29,4.31 0.51,7.57 2.76,0.38 6.08,0.67 7.49,-1.28z"/>
   <path class="fil0" d="M648.96 612.02c3.33,2.2 8.19,1.64 12.82,1.22 1.18,-8.08 -0.84,-6.36 -1.31,-6.95l0.39 5.76 -11.9 -0.04z"/>
   <path class="fil0" d="M1000.89 356.15l1.65 -3.87c0.19,-0.92 0.4,-3.17 0.51,-4.1 0.4,-3.37 1.12,-6.88 1.19,-10.11 -2.22,2.53 -1.96,4.95 -2.21,8.18 -0.28,3.6 -0.95,6.15 -1.15,9.9z"/>
   <path class="fil0" d="M155.85 577.49c1.36,2.67 2.25,3.34 4.64,4.78l1.08 -1.07c-0.74,-1.63 -0.3,-1.3 -2.14,-3.13 -2.34,-2.32 -0.79,-1 -3.56,-2.54l-0.03 1.97z"/>
   <path class="fil0" d="M633.19 245.24l6.37 -1.94c0.25,0.76 0.38,1.62 0.71,2.32 1.34,2.83 0.59,1.31 1.83,2.83l-1.49 -6.23c-3.92,0.05 -5.2,0.23 -7.43,3.02z"/>
   <path class="fil0" d="M868.67 628.45c3.89,-1.69 5.56,-3.13 5.74,-7.13 -3.25,2.23 -4.42,4.14 -5.74,7.13z"/>
   <path class="fil0" d="M165.16 587.17c1.76,2.71 2.53,3.24 6.34,5.26 -1.52,-4.38 -4.61,-5.02 -4.79,-5.63 -0.1,-0.34 -0.43,-0.3 -0.64,-0.45l-0.91 0.82z"/>
   <path class="fil0" d="M190.01 137.22c2.39,-0.51 3.31,-0.87 5.64,-1.59 0.49,-0.15 1.73,-0.45 2.12,-0.64 2.57,-1.22 1.62,-0.97 2.64,-1.95 -2.43,0.48 -3.42,0.81 -5.76,1.51 -0.32,0.1 -1.92,0.52 -2.13,0.63 -3.07,1.51 -1.35,0.77 -2.51,2.03z"/>
   <path class="fil0" d="M217.66 545.06l-3.4 -2.83 1.17 -4.26c-1.12,1.15 -0.72,-1.41 -2.03,2.57 -1,3.07 -0.33,1.25 -0.21,3.86l4.47 0.66z"/>
   <path class="fil0" d="M160.5 582.27l4.66 4.9 0.91 -0.82c-0.58,-0.95 -0.91,-1.65 -1.73,-2.68 -1.84,-2.32 -0.46,-0.98 -2.76,-2.47l-1.08 1.07z"/>
   <path class="fil0" d="M290.48 509.25c1.57,-1.27 0.84,1.7 1.32,-1.79 0.15,-1.12 0.22,-1.13 -0.34,-2.03 -1.09,-1.78 -3.43,-1.5 -5.69,-1.56 0.83,0.64 0.62,0.72 2.19,1.39 0.01,0 1.87,0.52 2.04,0.57l0.49 3.42z"/>
   <path class="fil0" d="M526.47 540.76c0.69,-0.97 0.35,0.69 1.58,-2.94 0.25,-0.74 0.5,-2.29 0.69,-3.09l2.84 0.2c-1.18,-1.96 1.83,-1.2 -2.09,-1.75 -3.18,2.27 -2.6,3.58 -3.03,7.59z"/>
   <path class="fil0" d="M523.76 713.01c2.42,-1.08 1.17,0.29 3.6,-2.16 -1.42,-3.36 0.58,-1.3 -3.6,-2.89l1.11 2.87 -1.11 2.18z"/>
   <path class="fil0" d="M378.11 787.24c1.3,1.32 -1.12,0.52 2.57,1.8 0.04,0.01 3.03,0.28 3.2,0.3 -2.57,-2.75 -0.55,-1.83 -4.08,-2.96l-1.7 0.86z"/>
   <path class="fil0" d="M792.15 139.36c-1.11,-1.41 -0.31,-0.8 -1.61,-1.85 -0.44,-0.36 -1.33,-0.87 -1.79,-1.13 -1.23,-0.71 -2.93,-1.52 -4.34,-2.25 1.67,2.48 -0.02,1.17 3.43,3.28 2.18,1.33 1.96,1.18 4.3,1.96z"/>
   <path class="fil0" d="M403.83 741.13c-1.26,-1.73 0.72,-0.22 -2.15,-2.21 -0.38,-0.26 -1.38,-0.68 -1.91,-0.95 -1.53,-0.78 -2.65,-1.37 -4.3,-2.22 1.78,2.56 0.11,1.28 3.54,3.13 1.55,0.84 3.17,1.56 4.81,2.24z"/>
   <path class="fil0" d="M578.08 659.99c-1.24,-0.69 1.11,-0.05 -2.37,-1.13 -0.31,-0.1 -1.2,-0.26 -1.54,-0.32 -1.68,-0.29 -3.44,-0.28 -5.13,-0.38 0.27,0.16 0.64,0.11 0.8,0.49 0.15,0.36 0.58,0.36 0.79,0.44 1.74,0.64 0.33,0.35 2.32,0.68 1.48,0.24 3.65,0.18 5.13,0.23z"/>
   <path class="fil0" d="M857.02 491.88c0.66,-0.74 0.74,-0.66 1.53,-1.88 0.42,-0.64 0.71,-1.28 1.04,-1.87 0.84,-1.52 1.41,-2.54 2.2,-4.29 -2.11,1.58 -1.41,0.43 -3.08,3.52 -1.16,2.16 -1.08,2.28 -1.69,4.51z"/>
   <path class="fil0" d="M869.1 214.52c-0.86,-2.04 -0.61,-1.63 -1.76,-3.38 -0.06,-0.09 -1.2,-1.67 -1.24,-1.71 -1.26,-1.4 -0.23,-0.37 -1.85,-1.64 0.66,1.87 0.59,2.07 1.66,3.72 0.04,0.06 1.18,1.51 1.31,1.64 1.08,1.05 0.58,0.5 1.88,1.37z"/>
   <path class="fil0" d="M180.56 141.12c1.38,-0.37 2.87,-0.77 3.94,-1.25 1.03,-0.47 0.62,-0.2 1.33,-0.66 1.35,-0.86 1,-0.75 1.86,-1.64 -1.48,0.36 -2.88,0.58 -4.15,1.17 -1.14,0.53 -0.52,0.18 -1.29,0.71 -1.18,0.82 -0.89,0.8 -1.69,1.66z"/>
   <path class="fil0" d="M33.91 430.44c-0.32,-3.6 -1.59,-5.75 -4.32,-7.83 0.76,1.71 1.32,2.73 2.14,4.24 0.29,0.53 0.65,1.26 1.01,1.86 0.77,1.29 0.87,1.32 1.16,1.73z"/>
   <path class="fil0" d="M241.87 510.34c0.99,-0.46 2.23,-0.96 3.28,-1.43 0.29,-0.13 1.16,-0.46 1.44,-0.61 2.36,-1.24 0.89,-0.46 2.13,-1.42 -1.36,0.21 -2.65,0.2 -3.82,0.69 -3.52,1.47 -2.01,1.24 -3.03,2.77z"/>
   <path class="fil0" d="M447.17 432.68c-0.59,-2.39 -0.47,-2.42 -1.62,-4.73 -0.43,-0.86 -0.51,-1.19 -1.08,-1.89 -1.27,-1.55 -0.28,-0.46 -2.05,-1.81l4.17 7.76c0.13,0.18 0.39,0.44 0.59,0.66z"/>
   <path class="fil0" d="M291.87 595.45c2.97,-1.28 3.33,-1.34 4.83,-4.23 -2.19,0.95 -0.98,-0.19 -3.08,1.59 -2.56,2.16 -0.68,0.68 -1.75,2.64z"/>
   <path class="fil0" d="M354.28 357.77c-0.17,-0.22 -0.41,-0.84 -0.51,-0.66l-2.16 -2.04c-1.86,-1.22 -2.48,-1.2 -4.57,-1.74l3.08 2.37c1.8,1.08 2.3,1.3 4.15,2.07z"/>
   <path class="fil0" d="M596.05 215.89c-0.45,-1.6 -0.4,-2.09 -1.12,-3.42 -1.24,-2.29 -1.47,-1.85 -2.55,-2.65 0.42,1.32 0.46,1.88 1.07,2.99 0.17,0.31 0.53,0.92 0.79,1.26 0.88,1.18 0.82,0.88 1.81,1.83z"/>
   <path class="fil0" d="M266.05 439.72c3.32,-1.67 3.56,-1.12 4.91,-4.79 -2.74,1.66 -3.24,1.83 -4.91,4.79z"/>
   <path class="fil0" d="M632.97 297.98c2.72,-1.99 0.1,1.29 2.58,-2.3 1.01,-1.46 0.99,-2.13 1.5,-3.88 -0.94,0.87 -0.79,0.51 -1.72,1.74 -0.56,0.74 -0.29,0.4 -0.8,1.26 -0.61,1.02 -1.05,2.15 -1.56,3.18z"/>
   <path class="fil0" d="M377.76 625.77c1.81,-0.54 2.28,-0.5 3.83,-1.51 2.17,-1.42 1.39,-1.13 2.47,-2.72 -1.61,0.75 -2.09,0.93 -3.37,1.76 -0.25,0.16 -0.94,0.61 -1.17,0.79 -1.34,1.05 -0.69,0.57 -1.75,1.69z"/>
   <path class="fil0" d="M109.54 498.02c-0.33,-0.81 -1.2,-2.95 -1.55,-3.57 -1.02,-1.8 0.1,-0.14 -0.76,-1.28 -1.08,-1.42 -0.49,-0.66 -1.87,-1.83 0.3,0.66 1.42,3.45 1.67,3.91 1.89,3.5 0.82,1.56 2.52,2.77z"/>
   <path class="fil0" d="M638.84 533.98c-0.53,-2.19 -0,-1.46 -1.04,-3.28 -1.85,-3.24 -1.2,-1.54 -2.62,-2.57 0.5,1.42 0.41,1.55 1.23,2.91 0.15,0.25 0.65,0.97 0.82,1.21 0.81,1.07 0.9,1 1.61,1.72z"/>
   <path class="fil0" d="M363.05 244.84c-1.24,-1.61 0.17,-0.74 -2.24,-2.44 -0.96,-0.68 -2.27,-1.11 -3.58,-1.57 1.81,2.35 -1.62,-0.43 2.07,2.22 1.48,1.06 2.02,1.12 3.75,1.8z"/>
   <path class="fil0" d="M41 442.46c-0.33,-1.38 -0.1,-1.56 -0.91,-2.81 -1.63,-2.53 -0.83,-1.04 -2.28,-2.2 0.34,3.5 1.23,3.63 3.19,5.01z"/>
   <path class="fil0" d="M968.48 131.03c-0.24,-0.92 0.04,-1.25 -0.88,-2.79 -1.83,-3.04 -1.12,-1.55 -3.05,-2.8 1.62,2.94 1.81,3.95 3.93,5.59z"/>
   <path class="fil0" d="M255.62 359.39c3.49,-0.75 3.75,-1.16 5.48,-3.97 -1.17,0.6 -1.84,0.84 -2.98,1.6 -0.88,0.58 -0.5,0.27 -1.15,0.82 -1.09,0.92 -0.68,0.69 -1.36,1.55z"/>
   <path class="fil0" d="M653.75 470.13c2.33,0.26 1.81,0.72 4.85,-0.04 1.19,-0.3 0.47,-0.08 1.41,-0.54 1.33,-0.65 1.04,-0.74 1.77,-1.34l-8.02 1.92z"/>
   <path class="fil0" d="M299.46 284.89c-1.78,-2.72 -1.74,-2.32 -5.52,-4.19 1.16,1.67 0.54,1.26 2.19,2.52 1.07,0.81 2.14,1.17 3.33,1.68z"/>
   <path class="fil0" d="M37.62 436.14c-1.22,-2.96 -1.63,-4 -3.71,-5.7 0.21,0.84 -0.12,0.98 0.92,2.77 0.38,0.65 0.41,0.71 0.84,1.23 1.2,1.43 0.54,0.57 1.95,1.7z"/>
   <path class="fil0" d="M676.55 321.09c1.63,-0.46 2.09,-0.37 3.3,-1.13 2.05,-1.29 1.32,-1.17 2.2,-2.26 -1.14,0.44 -2.12,0.7 -3.08,1.26 -4.1,2.39 -0.34,-0.06 -2.42,2.13z"/>
   <path class="fil0" d="M523.09 407.12c2.97,-1.6 2.84,-1.73 5.34,-4.76 -2.51,1.27 -0.27,-0.55 -2.96,1.71 -1.47,1.23 -1.27,1.25 -2.38,3.05z"/>
   <path class="fil0" d="M522.73 300.39c1.88,-2.02 -0.22,1.64 1.98,-2.53 0.54,-1.02 0.75,-1.94 1.18,-3.14 -2.16,2 0.08,-1.83 -2.12,2.31 -0.68,1.28 -0.62,1.69 -1.04,3.36z"/>
   <path class="fil0" d="M692.3 358.74c1.63,-1.34 1.29,2.07 1.32,-2.36l-3.58 -2.18c0.17,0.23 0.48,0.24 0.56,0.67 0.09,0.47 0.82,1.15 0.94,1.4 0.55,1.17 0.26,-0.21 0.76,2.48z"/>
   <path class="fil0" d="M225.23 748.37c-1.22,-2.09 0.1,-0.63 -1.28,-2.08 -2.12,-2.22 -0.9,-0.79 -2.7,-2.02 1.17,2.65 0.88,3.28 3.98,4.1z"/>
   <path class="fil0" d="M638.37 807.79c3.77,-0.38 3.16,-0.44 5.11,-2.79 -3.66,1.22 -2.96,0.33 -5.11,2.79z"/>
   <path class="fil0" d="M253.52 363.06c1.14,-2.86 0.45,-0.92 2.1,-3.67l-2.9 0.89c-0.66,5.4 -0.02,1.71 0.8,2.78z"/>
   <path class="fil0" d="M299.25 620.08c1.59,-0.18 1.6,0.31 3.73,-0.61 3.79,-1.64 1.13,0.16 2.5,-2.34l-6.23 2.95z"/>
   <path class="fil0" d="M302.92 440.88c2.82,-0.99 0.16,0.49 2.56,-0.92 3.15,-1.86 1.11,-0.71 2.35,-2.08 -3.02,0.81 -0.27,-0.65 -2.62,0.73 -2.62,1.54 -1.1,0.52 -2.29,2.27z"/>
   <path class="fil0" d="M437.54 269.88c2.32,-2.36 1.65,-1.54 2.4,-5.23 -2.37,1.79 -1.9,1.87 -2.4,5.23z"/>
   <path class="fil0" d="M601.17 361.47c3.66,-1.65 2.75,-0.62 4.24,-3.86 -1.83,1.06 -0.45,-0.26 -2.29,1.36 -2.8,2.47 -0.61,0.36 -1.95,2.5z"/>
   <path class="fil0" d="M321.62 693.59c-0.75,-0.87 0.88,-0.21 -1.97,-1.89 -1.24,-0.73 -1.64,-0.67 -3.29,-1.13 1.2,1.17 -0.52,0.44 2.46,2.08 1.49,0.82 1.34,0.56 2.8,0.94z"/>
   <path class="fil0" d="M742.13 405.05l2.21 -1.59c0.36,-4.9 0.25,-0.61 -1.44,-2.47l-0.77 4.06z"/>
   <path class="fil0" d="M547.19 609.25l-0.95 -2.45 -2.45 -1.33c1.7,4.06 0.36,2.1 3.39,3.78z"/>
   <path class="fil0" d="M326.92 696.73c-1.04,-1.03 -0.41,-0.89 -2.53,-2.15 -1.23,-0.73 -1.57,-0.64 -2.77,-1 0.24,0.27 0.14,0.81 1.97,1.86 1.18,0.68 1.81,0.77 3.33,1.28z"/>
   <path class="fil0" d="M311.03 545.5c-0.98,-1.44 -1.04,-1.5 -1.62,-3.5 -1.59,1.21 -1.15,-1.86 -1.34,2.14l2.95 1.35z"/>
   <path class="fil0" d="M477.92 641.78c0.72,-0.97 0.51,-0.06 1.42,-2.17 0.45,-1.05 0.53,-1.67 0.83,-2.69 -1.81,1.49 -0.69,-0.2 -1.77,1.84 -0.78,1.48 -0.36,0.89 -0.48,3.02z"/>
   <path class="fil0" d="M520.93 475.05c0.19,-0.24 0.52,-0.83 0.59,-0.7 0.07,0.14 0.42,-0.53 0.51,-0.77 0.8,-2.13 0.35,-0.18 0.75,-3.01 -2.08,0 -1.5,2.05 -1.85,4.47z"/>
   <path class="fil0" d="M638.86 574.29c-1.26,-1.73 -0.08,-0.61 -1.63,-1.94 -0.94,-0.81 -1.42,-0.81 -2.36,-1.28 1.34,2.81 0.89,2.13 3.99,3.21z"/>
   <path class="fil0" d="M971.45 136.33l-2.97 -5.3c0.12,1.95 -0.55,1.08 0.65,3.11 2.1,3.55 0.38,0.67 2.32,2.19z"/>
   <path class="fil0" d="M850.55 502.99c2.73,-1.26 1.95,-0.44 3,-3.83 -1.33,0.94 -0.73,0.06 -1.74,1.46 -0.86,1.18 -0.71,1.23 -1.25,2.38z"/>
   <path class="fil0" d="M444.96 284.3c1.41,-0.74 0.63,0.08 1.85,-1.09 0.84,-0.8 1.12,-1.36 1.96,-2.58 -1.99,1.12 -1,0.04 -2.33,1.28 -1.5,1.4 -0.65,0.37 -1.48,2.39z"/>
   <path class="fil0" d="M364.6 470.88c2.24,-0.5 2.4,0.1 3.22,-2.28l-2.06 0.52c-2.77,0.33 0.18,-0.06 -1.16,1.75z"/>
   <path class="fil0" d="M599.83 25.97c2.32,-0.28 1.01,0.3 2.74,-0.74 1.51,-0.91 0.73,-0.54 1.67,-1.65 -1.19,0.32 -0.89,-0.15 -2.49,0.79 -1.71,1 -0.91,0.63 -1.92,1.6z"/>
   <path class="fil0" d="M559.34 550.55c-1.14,-1.93 -0.06,-0.86 -1.41,-2.2 -0.93,-0.92 -1.4,-1.08 -2.8,-1.92 1.19,1.87 0.14,0.81 1.5,2.15 0.79,0.78 1.63,1.24 2.71,1.97z"/>
   <path class="fil0" d="M663.68 299.56c3.2,-1.24 3.62,-1.17 5.43,-4.5l-5.43 4.5z"/>
   <path class="fil0" d="M455.02 90.3c-0.85,-0.91 -0.5,-0.83 -1.74,-1.71 -1.07,-0.75 -1.32,-0.77 -2.33,-1.31 1.3,2.81 0.75,2.06 4.07,3.02z"/>
   <path class="fil0" d="M316.57 434.22c1.51,-0.31 1.07,0.14 2.71,-0.68 1.8,-0.9 1.06,-0.67 2.01,-1.48 -2.29,0.27 -1.05,-0.25 -2.8,0.63 -1.55,0.78 -1.03,0.69 -1.92,1.53z"/>
   <path class="fil0" d="M485.33 453.3c2.23,-1.4 2.27,-1.86 3.51,-4.16 -2.07,1.3 -0.71,-0.14 -2.06,1.45 -0.77,0.9 -0.9,1.52 -1.44,2.71z"/>
   <path class="fil0" d="M783.37 133.94l-5.44 -3.18c2,3 1.68,2.46 5.44,3.18z"/>
   <path class="fil0" d="M452.09 377.11l2.38 -0.97 0.08 -2.22c-2.65,1.88 -1.3,0.57 -2.46,3.19z"/>
   <path class="fil0" d="M627.49 247.16c4.46,-0.75 0.37,0.4 2.05,-0.43 2.11,-1.04 1.18,-0.58 2.29,-1.54l-2.67 0.45c-5.17,0.23 0.46,-0.39 -1.67,1.51z"/>
   <path class="fil0" d="M771.38 606.47l2.2 -0.4 1.17 -2.48c-2.58,1.37 -1.6,0.19 -3.38,2.88z"/>
   <path class="fil0" d="M569.85 440.68l-0.9 -1.96c0,-1.75 0.36,-1.12 -1.69,-1.26 1.41,3.52 -0.53,1.21 2.59,3.22z"/>
   <path class="fil0" d="M625.93 514.17c-1.77,-2.63 -0.61,-1.32 -3.08,-2.5l0.92 2.37 2.16 0.13z"/>
   <path class="fil0" d="M362.87 578.48c3.34,-1.64 1.03,0.71 2.63,-2.69l-2.24 0.64 -0.39 2.05z"/>
   <path class="fil0" d="M866.9 31.95c-1.03,-1.35 -0.07,-0.78 -1.62,-1.82 -1.38,-0.93 -1.18,-0.62 -2.5,-1.17 1.95,2.42 0.73,1.7 4.12,3z"/>
   <path class="fil0" d="M117.51 87.13l1.89 -0.05 1.12 -2.37c-3.37,1.5 -1.69,0.21 -3.02,2.42z"/>
   <path class="fil0" d="M287.91 512.91c0.82,-0.82 0.8,-0.52 1.63,-1.78 0.48,-0.72 0.67,-1.29 0.94,-1.88 -2.37,0.48 -1.67,0.6 -2.57,3.66z"/>
   <path class="fil0" d="M456.78 453.66c-0.74,-3.88 0.5,-0.17 -0.45,-1.93 -0.84,-1.55 -0.69,-1.19 -1.51,-2.05 0.19,3.22 0.06,2.45 1.96,3.98z"/>
   <path class="fil0" d="M441.02 289.61c1.46,-1.03 0.89,-0.07 2.46,-2.08 1.12,-1.43 0.93,-1.45 1.48,-3.23l-3.94 5.31z"/>
   <path class="fil0" d="M712.14 652.55c2.86,-0.57 2.22,0.16 3.48,-2.37 -2.35,0.75 -0.8,0.1 -2.41,1.12 -0.16,0.1 -0.45,0.78 -0.57,0.59 -0.12,-0.19 -0.33,0.44 -0.5,0.66z"/>
   <path class="fil0" d="M526.92 459.05c1.38,-1.23 0.86,-0.2 1.86,-1.91 1.45,-2.46 0.05,0.25 0.91,-2.41 -1.06,0.99 -0.69,0.17 -1.64,1.76 -0.7,1.17 -0.66,1.42 -1.13,2.57z"/>
   <path class="fil0" d="M362.99 363.5l-0.55 -1.92 -2.44 -0.83c1.35,2.24 0.25,1.39 2.99,2.75z"/>
   <path class="fil0" d="M897.15 591.39l1.74 -0.73 0.39 -2.35c-2.9,2.01 -1.2,-0.24 -2.13,3.09z"/>
   <path class="fil0" d="M840.16 177.41c-0.95,-2.53 -0.18,-1.52 -2.24,-2.43l0.2 2.08 2.04 0.35z"/>
   <path class="fil0" d="M84.62 502.2c-1.67,-3.21 -0.86,-1.87 -3.04,-3.12 1.67,3.61 1.07,2.02 3.04,3.12z"/>
   <path class="fil0" d="M423.88 172.43c-1.61,-2.73 -0.29,-1.64 -3.79,-3.5 1.07,1.44 0.47,1.01 1.7,2.09 0.97,0.85 1.14,0.83 2.09,1.41z"/>
   <path class="fil0" d="M607.77 326.02l2.27 -0.87c2.57,-0.31 -0.17,0.06 1.1,-1.86 -2.75,1.38 -1.92,0.96 -3.37,2.73z"/>
   <path class="fil0" d="M690.75 391.69c2.24,-0.14 1.01,0.37 3.05,-0.38 2.98,-1.09 1.53,-0.82 2.47,-1.73l-5.52 2.11z"/>
   <path class="fil0" d="M227.31 729.16c3.28,-0.83 0.25,0.42 1.82,-0.55 1.56,-0.96 1.03,-0.63 1.97,-1.6l-2.37 0.81c-1.86,0 -1.42,-0.48 -1.42,1.33z"/>
   <path class="fil0" d="M704.68 775.31c1.76,-0.74 0.76,-0.19 2.1,-1.17 0.12,-0.09 0.36,-0.24 0.45,-0.54 0.08,-0.3 0.24,-0.39 0.37,-0.58 -2.26,-0.65 -2.38,1.23 -2.92,2.3z"/>
   <path class="fil0" d="M526.43 69.55c2.81,-1.52 0.05,0.5 1.58,-0.94 1.24,-1.17 0.75,-0.65 1.67,-1.95l-2.16 0.95c-2.61,0.29 0.17,-0.08 -1.08,1.94z"/>
   <path class="fil0" d="M530.35 647.13c-0.95,-1.1 -0.23,-0.68 -1.67,-1.64 -1.83,-1.21 -0.32,-0.22 -2.44,-0.87 1.67,1.6 -1.15,-0.12 1.83,1.58 1.54,0.88 1.19,0.53 2.28,0.93z"/>
   <path class="fil0" d="M25.48 187.96c2.22,-1.58 1.34,-0.15 2.27,-3.36 -1.4,1.11 -1.15,-0.49 -2.27,3.36z"/>
   <path class="fil0" d="M258.05 290.48c-1.59,-3.22 -0.32,-1.66 -2.84,-3.12 1.52,3.46 1.08,1.99 2.84,3.12z"/>
   <path class="fil0" d="M379.04 256.76l-3.84 -3.71c1.85,3.49 -0.35,2.12 3.84,3.71z"/>
   <path class="fil0" d="M711.38 770.81l4.6 -3.38c-2.96,0.67 -0.76,-0.32 -2.45,0.88 -2.12,1.52 -1.14,1.06 -2.15,2.5z"/>
   <path class="fil0" d="M393.76 439.99c-1.52,-2.42 0.44,-1.16 -3.14,-2.57 1.41,2.26 0.23,1.42 3.14,2.57z"/>
   <path class="fil0" d="M936.41 85.3c-1.88,-3.04 -0.54,-1.54 -3.41,-2.89 2,2.88 0.98,1.62 3.41,2.89z"/>
   <path class="fil0" d="M817.44 683.16c2.5,-1.07 1.07,0.96 2.93,-2.38 -1.64,-0.44 -1.37,-0.91 -1.37,0.57l-1.56 1.82z"/>
   <path class="fil0" d="M125.93 547.99c-1.87,-2.68 -1.09,-1.63 -3.31,-2.87l1.29 2.21 2.02 0.66z"/>
   <path class="fil0" d="M945.26 517.63c0.19,-0.18 0.51,-0.68 0.59,-0.53 0.07,0.15 0.44,-0.43 0.53,-0.59 0.95,-1.62 0.36,-0.24 1.06,-2.36 -2.21,0.82 -1.65,1.19 -2.18,3.48z"/>
   <path class="fil0" d="M628.38 811.33c2.87,-0.36 0.85,0.07 3.02,-0.69 0.23,-0.08 0.6,-0.11 0.78,-0.49 0.17,-0.37 0.47,-0.38 0.71,-0.57 -4.33,0.4 -0.68,-0.31 -2.23,0.35 -1.81,0.78 -1.37,0.65 -2.28,1.39z"/>
   <path class="fil0" d="M820.37 680.77c3.24,-1.92 1.28,-0.41 2.28,-2.91 -3.58,2.2 -1.44,0.38 -2.28,2.91z"/>
   <path class="fil0" d="M52.86 146.55c2.48,-1.44 1.32,-0.13 3.13,-2.96 -2.64,1.36 -1.57,-0.16 -3.13,2.96z"/>
   <path class="fil0" d="M406.24 503.76c2.48,0 1.95,-1.95 2.3,-3.68l-2.3 3.68z"/>
   <path class="fil0" d="M550.03 510.81c-1.64,-3.74 -1.14,-2.16 -2.83,-3.32 1.07,2.38 -0.28,0.42 0.83,1.64 1.36,1.49 0.3,0.55 2,1.68z"/>
   <path class="fil0" d="M79.82 496.37c-1.76,-3.02 -1.11,-1.87 -3.25,-3.15 1.82,2.99 1.02,1.84 3.25,3.15z"/>
   <path class="fil0" d="M102.53 205.25c1.92,-1.18 1.32,0.29 3.13,-3.26 -0.26,0.16 -0.66,0.05 -0.78,0.48 -0.12,0.42 -0.57,0.37 -0.72,0.54 -1.34,1.48 -0.51,0.29 -1.63,2.24z"/>
   <path class="fil0" d="M674.38 435.57c-0.17,-0.27 -0.37,-1.01 -0.5,-0.83 -0.13,0.18 -0.38,-0.6 -0.55,-0.76 -1.42,-1.36 -0.19,-0.47 -2.16,-1.66 1.33,2.38 0.03,1.52 3.21,3.25z"/>
   <path class="fil0" d="M519.98 177.66c3.08,-1.74 1.77,-1.1 2.92,-3.09 -3.03,1.88 -1.55,0.52 -2.92,3.09z"/>
   <path class="fil0" d="M758.48 618.71c2.53,-1.86 1.6,-1.11 2.9,-3.29 -3.05,1.71 -1.51,0.36 -2.9,3.29z"/>
   <path class="fil0" d="M71.38 486.66c-0.74,-3.45 -0.75,-2.59 -3.13,-4.21l3.13 4.21z"/>
   <path class="fil0" d="M383.23 332.87c-1.2,-1.6 0.02,-1.28 -3.2,-2.63 1.46,2.22 0.21,1.3 3.2,2.63z"/>
   <path class="fil0" d="M820.24 550.02c1.58,-0.99 1.22,0.2 2.77,-2.88 -2.46,1.32 -1.31,-0.02 -2.77,2.88z"/>
   <path class="fil0" d="M807.41 148.88c-1.31,-2.3 0.5,-1.14 -3.04,-2.54 1.35,1.88 0.46,1.34 3.04,2.54z"/>
   <path class="fil0" d="M368.78 248.76c-1.2,-1.86 0.09,-1.4 -3.25,-2.98 0.16,0.24 0.35,0.34 0.46,0.74 0.12,0.4 0.37,0.55 0.53,0.69 1.51,1.3 0.32,0.5 2.25,1.56z"/>
   <path class="fil0" d="M607.67 356.65c2.66,-0.85 0.52,0.26 1.77,-0.66 1.63,-1.19 0.74,-0.41 1.85,-1.79 -2.62,0.85 -0.51,-0.24 -1.73,0.64 -1.77,1.29 -0.63,0.29 -1.89,1.8z"/>
   <path class="fil0" d="M375.26 774.97c-1.99,-2.75 -0.02,-1.34 -2.91,-1.84 1.03,1.78 0.3,1.1 2.91,1.84z"/>
   <path class="fil0" d="M367.82 468.61c1.97,-0.81 -0.55,1.04 1.25,-0.6 1.12,-1.02 0.65,-0.57 1.31,-1.56l-2.01 0.62c-2.12,0.37 0.12,0.1 -0.55,1.54z"/>
   <path class="fil0" d="M559.72 522.48c-0.79,-2.5 1.43,-0.36 -2.38,-3.21 0.96,1.91 0.09,1.53 2.38,3.21z"/>
   <path class="fil0" d="M669.55 406l3.55 -3.59c-3.22,1.8 -2.09,-0.22 -3.55,3.59z"/>
   <path class="fil0" d="M708.76 502.63c-0.16,-0.27 -0.34,-0.99 -0.47,-0.81 -0.12,0.18 -0.36,-0.59 -0.53,-0.75 -1.5,-1.46 -0.18,-0.47 -2.18,-1.71 1.22,2.01 -0.08,1.34 3.17,3.27z"/>
   <path class="fil0" d="M455.96 371.82c2.02,-1.24 1.48,-0.3 3.29,-3.04 -2.42,1.35 -1.41,0.1 -3.29,3.04z"/>
   <path class="fil0" d="M738.23 397.68l-3.62 -2.98c1.16,2.68 0.84,2.22 3.62,2.98z"/>
   <path class="fil0" d="M170.51 58.42c5.39,-0.9 0.03,0.54 2.05,-0.42 1.8,-0.86 1.41,-0.75 2.29,-1.47 -5.34,0.87 -0.25,-0.47 -2.11,0.43 -1.77,0.85 -1.31,0.67 -2.23,1.47z"/>
   <path class="fil0" d="M342.93 501.72l3.5 -2.38c-3.11,0.67 -2.39,-0.5 -3.5,2.38z"/>
   <path class="fil0" d="M366.15 767.95l-3.13 -2.49c1.28,3.46 0.45,1.97 3.13,2.49z"/>
   <path class="fil0" d="M531.21 169.03c2.74,-1.18 0.09,0.49 1.59,-0.76 1.18,-0.98 0.81,-0.67 1.47,-1.61 -3.22,0.86 -1.99,0.8 -3.06,2.37z"/>
   <path class="fil0" d="M562.18 524.58c-1.19,-2.35 -0.06,-1.55 -2.46,-2.1 1.22,2.63 -0.84,0.7 2.46,2.1z"/>
   <path class="fil0" d="M328.65 741.88c-1.13,-1.51 0.95,-1.27 -3.24,-2.29 0.55,0.64 0.48,0.66 1.6,1.5 1.79,1.34 -2.42,-1.01 1.63,0.79z"/>
   <path class="fil0" d="M262.9 443.07c3.07,-1.54 1.72,-0.55 3.2,-3.07 -2.32,1.48 -0.04,-0.43 -1.46,1 -1.15,1.16 -0.73,0.69 -1.74,2.07z"/>
   <path class="fil0" d="M907.04 58.13c-1.28,-2.07 -0.29,-1.44 -3.07,-3.2 0.16,0.27 0.33,0.38 0.45,0.82 0.12,0.43 0.35,0.6 0.51,0.76 1.32,1.28 0.17,0.48 2.12,1.62z"/>
   <path class="fil0" d="M217.8 533.01c0.23,-0.19 0.61,-0.71 0.71,-0.54 0.1,0.17 0.52,-0.43 0.64,-0.6 1.13,-1.59 0.43,-0.23 1.28,-2.34 -0.24,0.18 -0.62,0.09 -0.72,0.51 -0.1,0.42 -0.53,0.41 -0.65,0.58 -1.11,1.58 -0.45,0.27 -1.27,2.39z"/>
   <path class="fil0" d="M368.74 770.95c-1.01,-1.68 0.21,-1.18 -2.59,-3 0.73,2.05 -0.35,0.16 1.08,1.98 1.07,1.35 -0.68,-0.31 1.5,1.02z"/>
   <path class="fil0" d="M493.34 242.46c2.17,-1.29 1.52,-0.24 3.17,-3.03 -0.26,0.15 -0.66,0.03 -0.78,0.44 -0.12,0.41 -0.58,0.35 -0.73,0.5 -1.34,1.36 -0.5,0.24 -1.66,2.09z"/>
   <path class="fil0" d="M717.05 766.92c1.91,-1.01 0.74,-0.26 2.22,-1.47 0.16,-0.13 0.44,-0.26 0.55,-0.65 0.12,-0.39 0.32,-0.47 0.49,-0.69 -3.22,1.5 -2.04,1.05 -3.26,2.82z"/>
   <path class="fil0" d="M114.85 190.38l3.32 -3.36c-3.02,1.56 -1.84,-0.31 -3.32,3.36z"/>
   <path class="fil0" d="M108.48 197.48c0.25,-0.16 0.63,-0.66 0.75,-0.48 0.11,0.18 0.56,-0.37 0.7,-0.53 1.3,-1.38 0.49,-0.29 1.62,-2.08 -2.04,1.23 -1.48,0.14 -3.07,3.09z"/>
   <path class="fil0" d="M43.41 445.76l-2.41 -3.3 0.48 2.05c0.31,2.61 -0.05,-0.15 1.93,1.25z"/>
   <path class="fil0" d="M554.67 710.22c-1.2,-3.51 0.63,0.01 -0.67,-1.69 -1.11,-1.45 -0.52,-0.78 -1.79,-1.78 0.72,1.99 0.11,0.73 1.17,2.34 0.11,0.17 0.52,0.76 0.61,0.6 0.09,-0.16 0.46,0.35 0.68,0.54z"/>
   <path class="fil0" d="M523.72 174.85c2.99,-1.8 -0.53,1.04 1.39,-0.92 1.13,-1.16 0.7,-0.68 1.67,-2.05 -3.24,1.69 -1.94,1.03 -3.05,2.97z"/>
   <path class="fil0" d="M543.64 57.83c2.98,-1.28 0.05,0.57 1.58,-0.77 1.39,-1.22 0.61,-0.38 1.69,-1.91 -2.16,0.93 -0.37,-0.28 -1.56,0.76 -1.42,1.24 -0.64,0.44 -1.71,1.91z"/>
   <path class="fil0" d="M140.54 165.23c2.92,-1.54 1.81,-1.01 2.94,-3.04 -2.62,1.76 0.13,-0.64 -1.41,1.03 -1.1,1.2 -0.66,0.66 -1.53,2.01z"/>
   <path class="fil0" d="M99.33 101.4l3.13 -3c-2.81,0.9 -1.69,-0.22 -3.13,3z"/>
   <path class="fil0" d="M707.6 773.02c1.99,-0.48 0.31,0.26 2.11,-0.9 0.15,-0.1 0.43,-0.26 0.54,-0.62 0.11,-0.37 0.32,-0.48 0.49,-0.72 -2.58,0.99 -0.05,-0.51 -1.63,0.7 -1.25,0.96 -0.86,0.67 -1.51,1.54z"/>
   <path class="fil0" d="M87.16 504.96l-2.34 -2.94c0.1,2.24 -0.61,1.95 1.04,1.95 0,2.1 -0.29,0.07 1.3,0.99z"/>
   <path class="fil0" d="M114.58 89.52c2.44,-1.16 0.05,0.47 1.49,-0.78 1.21,-1.05 0.74,-0.63 1.44,-1.61 -3.08,1.01 -1.95,0.94 -2.93,2.39z"/>
   <path class="fil0" d="M482.51 210.57l2.66 -2.68 -1.81 0.55c-1.86,0.38 0.02,0.1 -0.85,2.12z"/>
   <polygon class="fil0" points="621.02,315.24 623.1,314.93 623.34,312.77 "/>
   <path class="fil0" d="M36.7 168.77c0.24,-0.16 0.62,-0.64 0.72,-0.47 0.1,0.17 0.53,-0.38 0.65,-0.54 1.12,-1.49 0.47,-0.28 1.28,-2.25 -0.23,0.17 -0.6,0.1 -0.69,0.5 -0.1,0.39 -0.52,0.4 -0.63,0.56 -1.13,1.48 -0.47,0.33 -1.32,2.2z"/>
   <polygon class="fil0" points="135.06,545.34 132.71,542.1 133.24,544.68 "/>
   <path class="fil0" d="M529.41 401.21l2.74 -2.78 -1.79 0.65c-1.98,0.32 0.02,0.03 -0.95,2.13z"/>
   <path class="fil0" d="M554.48 517.32l-0.56 -2c-0.36,-2.16 -0.04,0.04 -1.92,-1.09l2.48 3.09z"/>
   <path class="fil0" d="M315.15 733.18c-0.18,-0.22 -0.4,-0.87 -0.52,-0.68 -0.12,0.19 -0.41,-0.5 -0.57,-0.62 -1.58,-1.13 -0.25,-0.42 -2.24,-1.25 0.97,1.31 0.34,0.71 1.71,1.84 1.75,1.45 -1.64,-0.53 1.61,0.7z"/>
   <path class="fil0" d="M612.95 503.31c-0.17,-0.22 -0.37,-0.87 -0.49,-0.68 -0.11,0.19 -0.39,-0.5 -0.55,-0.62 -1.5,-1.06 -0.23,-0.42 -2.32,-1.24 0.18,0.22 0.42,0.3 0.54,0.68 0.12,0.38 0.42,0.5 0.58,0.62 1.55,1.1 0.43,0.48 2.24,1.24z"/>
   <path class="fil0" d="M595.29 277.08c1.2,-0.96 0.7,-0.4 1.8,-1.77 1.25,-1.57 -0.72,1.88 0.79,-1.68 -0.23,0.19 -0.61,0.13 -0.71,0.56 -0.1,0.42 -0.52,0.43 -0.64,0.61 -1.11,1.58 -0.44,0.27 -1.24,2.29z"/>
   <path class="fil0" d="M155.85 577.49c-1.68,-2.2 -0.57,-0.88 -2.52,-1.66 1.71,2.87 0.13,1.41 2.52,1.66z"/>
   <path class="fil0" d="M286.2 601.47l2.4 -2.8c-1.85,0.9 -1.56,-1.1 -1.88,0.91l-0.53 1.89z"/>
   <path class="fil0" d="M844.74 655.27l2.4 -2.99c-1.98,0.1 -1.64,-0.5 -1.64,1.16l-0.76 1.83z"/>
   <path class="fil0" d="M617.57 318.73l3.79 -3.44c-1.93,0.97 -0.96,0.17 -2.31,1.3 -1.58,1.32 -0.28,0.12 -1.48,2.14z"/>
   <polygon class="fil0" points="224.45,731.17 227.61,729.09 225.16,729.42 "/>
   <path class="fil0" d="M308.72 437.8l3.31 -1.78 -1.99 0.24c-3.15,0.25 0.05,-0.18 -1.31,1.53z"/>
   <path class="fil0" d="M370.38 466.45l1.96 -0.5c2.75,-0.36 -0.21,0.02 1.13,-1.75l-3.09 2.26z"/>
   <path class="fil0" d="M498.08 435.94c2,-0.1 1.68,0.51 1.68,-1.11l0.75 -1.74 -2.43 2.85z"/>
   <path class="fil0" d="M833.18 169.53l-2.92 -2.61c0.14,1.98 -0.48,1.67 1.11,1.67l1.81 0.94z"/>
   <path class="fil0" d="M255.42 365.9l-0.4 -2.06c-0.27,-2.36 0.05,-0.07 -1.49,-0.79l1.9 2.84z"/>
   <path class="fil0" d="M717.49 511.43c-0.08,-2.23 0.62,-1.92 -1.06,-1.92l-1.33 -0.88 2.4 2.81z"/>
   <path class="fil0" d="M470.3 666c-0.73,-1.9 -0.11,-0.67 -1.13,-2.2 -0.1,-0.14 -0.48,-0.18 -0.56,-0.55 -0.08,-0.37 -0.41,-0.32 -0.61,-0.49 0.73,1.83 0.16,0.71 1.15,2.19 0.1,0.14 0.48,0.71 0.55,0.55 0.08,-0.16 0.41,0.33 0.6,0.5z"/>
   <polygon class="fil0" points="491.06,667.6 488.28,664.94 489.17,667.09 "/>
   <path class="fil0" d="M481.6 458.87l2.57 -3.05c-2.02,0.08 -1.6,-0.49 -1.6,1.35l-0.97 1.7z"/>
   <path class="fil0" d="M324.49 517.21l2.54 -2.8c-1.92,0.1 -1.61,-0.49 -1.61,1.06l-0.93 1.74z"/>
   <path class="fil0" d="M704.83 656.01c4.59,-0.69 2.22,-0.33 3.38,-1.8l-3.38 1.8z"/>
   <polygon class="fil0" points="814.91,685.93 817.65,683.05 815.8,683.72 "/>
   <path class="fil0" d="M914.86 64.59c-1.19,-2.07 0.71,-1.17 -3.1,-2.32l3.1 2.32z"/>
   <path class="fil0" d="M838.05 174.92c-1.11,-2.31 0.39,-1.35 -2.91,-2.45l2.91 2.45z"/>
   <path class="fil0" d="M830.34 670.6l2.38 -3.02c-2.09,1.17 -1.16,-0.68 -2.38,3.02z"/>
   <path class="fil0" d="M669.78 514.48l-2.35 -2.74c0.89,2.63 -0.45,1.52 2.35,2.74z"/>
   <path class="fil0" d="M232.27 516.96l2.93 -2.51c-3.47,1.27 -1.73,0.31 -2.93,2.51z"/>
   <path class="fil0" d="M584.45 207.8c2.51,-1.03 1.55,-0.07 2.51,-2.7l-2.51 2.7z"/>
   <polygon class="fil0" points="258.1,367.76 255.6,365.04 256.18,366.96 "/>
   <path class="fil0" d="M527.53 171.94l2.93 -2.26c-3.5,1.07 -1.89,0.24 -2.93,2.26z"/>
   <path class="fil0" d="M804.6 694.57c3.1,-1.17 1.71,-0.22 2.82,-2.52l-2.82 2.52z"/>
   <path class="fil0" d="M548.1 423.19l1.89 -2.81c-1.93,1.3 -0.92,-1.96 -1.89,2.81z"/>
   <path class="fil0" d="M629.69 518.46l-2.43 -3.03c1.17,3.35 0.31,1.82 2.43,3.03z"/>
   <path class="fil0" d="M203.74 438.55l2.43 -2.73c-2.05,0.99 -0.86,-1.23 -2.43,2.73z"/>
   <path class="fil0" d="M207.52 434.43l2.6 -2.13c-4.27,1.21 -1.5,0.04 -2.6,2.13z"/>
   <path class="fil0" d="M549.42 702.23l-2.51 -2.74c1.11,2.99 0.16,1.63 2.51,2.74z"/>
   <path class="fil0" d="M521.49 73.04l3.22 -2.18c-3.89,1.13 -2.11,0.51 -3.22,2.18z"/>
   <path class="fil0" d="M534.28 166.66c3.29,-0.96 1.97,-0.82 3.09,-2.43l-3.09 2.43z"/>
   <path class="fil0" d="M89.43 507.83l-2.39 -2.75c1.05,3.08 0.12,1.65 2.39,2.75z"/>
   <path class="fil0" d="M214.86 428.4l3.28 -1.76c-4.22,0.7 -2.17,0.43 -3.28,1.76z"/>
   <path class="fil0" d="M71.65 126.17l2.61 -2.51c-2.73,1.04 -1.62,0.13 -2.61,2.51z"/>
   <path class="fil0" d="M789.28 587.25c2.32,-1.08 1.35,0.35 2.55,-2.68l-2.55 2.68z"/>
   <path class="fil0" d="M314.72 530.03c2.3,-1.41 1.3,-0.03 1.85,-2.99l-1.85 2.99z"/>
   <path class="fil0" d="M325.42 739.59l-3.1 -2.5c1.13,1.57 -0.25,1.43 3.1,2.5z"/>
   <path class="fil0" d="M618.6 506.69l-3.24 -2.22c1.26,1.74 -0.62,1.06 3.24,2.22z"/>
   <path class="fil0" d="M494.35 286.53c2.45,-0.96 1.46,0.57 2.52,-2.28l-2.52 2.28z"/>
   <path class="fil0" d="M372.35 773.13l-2.89 -2.46c1.32,2.21 0.28,1.67 2.89,2.46z"/>
   <path class="fil0" d="M150.87 572.89l-2.56 -2.64c1.11,2.67 0.21,1.6 2.56,2.64z"/>
   <path class="fil0" d="M579.47 576.06l-2.08 -3.4c0.99,3.63 -0.04,1.73 2.08,3.4z"/>
   <path class="fil0" d="M976.03 144.87l-1.81 -3.09c0.72,3.57 0.06,1.96 1.81,3.09z"/>
   <path class="fil0" d="M741.22 399.34c-2.15,-2.76 -0.06,-1.31 -2.99,-1.66l2.99 1.66z"/>
   <path class="fil0" d="M479.3 461.92c1.6,-1.1 1.47,0 2.3,-3.04l-2.3 3.04z"/>
   <path class="fil0" d="M747.13 744.19c2.97,-1.05 1.69,-0.2 2.65,-2.28l-2.65 2.28z"/>
   <path class="fil0" d="M493.16 670.06c-0.97,-1.95 0.49,-1.13 -2.72,-2.3l2.72 2.3z"/>
   <path class="fil0" d="M822.61 677.9l2.82 -2.53c-2.77,1.15 -1.68,0.3 -2.82,2.53z"/>
   <path class="fil0" d="M800.89 698.24c2.85,-1.17 1.54,-0.26 2.58,-2.49l-2.58 2.49z"/>
   <path class="fil0" d="M860.88 203.09c-0.99,-3.56 -0.5,-2.06 -2.03,-3.19l2.03 3.19z"/>
   <path class="fil0" d="M376.67 376.58l-2.28 -2.96c1.05,2.9 0.31,1.74 2.28,2.96z"/>
   <path class="fil0" d="M941.29 524.41c1.39,-1.15 1.05,0.27 1.89,-3.25l-1.89 3.25z"/>
   <path class="fil0" d="M95.13 514.41c-1.69,-2.59 -0.82,-1.5 -3.25,-2.85l3.25 2.85z"/>
   <path class="fil0" d="M425.08 284.83l2.77 -2.09c-2.45,0.83 -1.67,0.1 -2.77,2.09z"/>
  </g>
 </g>
</svg>
